<?xml version="1.0" encoding="UTF-8"?>
<svg width="512" height="512" viewBox="0 0 512 512" fill="none" xmlns="http://www.w3.org/2000/svg">
  <rect width="512" height="512" rx="50" fill="#1E293B"/>
  <path d="M256 390C329.5 390 390 329.5 390 256C390 182.5 329.5 122 256 122C182.5 122 122 182.5 122 256C122 329.5 182.5 390 256 390Z" stroke="#60A5FA" stroke-width="24" stroke-miterlimit="10"/>
  <path d="M256 342C303.496 342 342 303.496 342 256C342 208.504 303.496 170 256 170C208.504 170 170 208.504 170 256C170 303.496 208.504 342 256 342Z" stroke="#60A5FA" stroke-width="20" stroke-miterlimit="10"/>
  <path d="M256 298C279.196 298 298 279.196 298 256C298 232.804 279.196 214 256 214C232.804 214 214 232.804 214 256C214 279.196 232.804 298 256 298Z" fill="#60A5FA"/>
  <path d="M165 170L120 120" stroke="#60A5FA" stroke-width="20" stroke-linecap="round"/>
  <path d="M347 170L392 120" stroke="#60A5FA" stroke-width="20" stroke-linecap="round"/>
  <path d="M165 342L120 392" stroke="#60A5FA" stroke-width="20" stroke-linecap="round"/>
  <path d="M347 342L392 392" stroke="#60A5FA" stroke-width="20" stroke-linecap="round"/>
  <path d="M165 170L120 220" stroke="#BAE6FD" stroke-width="12" stroke-linecap="round"/>
  <path d="M347 170L392 220" stroke="#BAE6FD" stroke-width="12" stroke-linecap="round"/>
  <path d="M165 342L120 292" stroke="#BAE6FD" stroke-width="12" stroke-linecap="round"/>
  <path d="M347 342L392 292" stroke="#BAE6FD" stroke-width="12" stroke-linecap="round"/>
  <path d="M256 122V90" stroke="#60A5FA" stroke-width="20" stroke-linecap="round"/>
  <path d="M256 422V390" stroke="#60A5FA" stroke-width="20" stroke-linecap="round"/>
  <path d="M390 256H422" stroke="#60A5FA" stroke-width="20" stroke-linecap="round"/>
  <path d="M90 256H122" stroke="#60A5FA" stroke-width="20" stroke-linecap="round"/>
</svg>
